<svg xmlns="http://www.w3.org/2000/svg" viewBox="0 0 435.96 362.47"><title>アセット 1</title><g id="レイヤー_2" data-name="レイヤー 2"><g id="レイヤー_1-2" data-name="レイヤー 1"><path d="M435.39,60.31a42.77,42.77,0,0,0-42.87-42.68h-5.9a42.85,42.85,0,0,1,2.06,13.13V289.23A42.77,42.77,0,0,1,345.91,332H67.24c-17.12,17.71-39.64,25.13-55.43,30.47l381.47-.84A42.77,42.77,0,0,0,436,318.76Z"/></g><g id="レイヤー_2-2" data-name="レイヤー 2"><path d="M0,320c36.39-32.88,56.68-75,56.68-119.33V30.78A30.81,30.81,0,0,1,87.45,0H345.91a30.81,30.81,0,0,1,30.77,30.77V289.23A30.81,30.81,0,0,1,345.91,320Z"/></g></g></svg>